<svg xmlns="http://www.w3.org/2000/svg" viewBox="0 0 90 90" fill="none">
  <rect width="90" height="90" rx="18" fill="#000"/>
  <path d="M72.2 4.6L53.6 32.2c-1.1 1.6 1.1 3.6 2.5 2.3l18.2-16.8c.4-.3.9-.1.9.4v55.7c0 .6-.7.9-1.1.4L18.9 4.3C16.5 1.6 13.2 0 9.5 0 4.3 0 0 4.3 0 9.8v70.4C0 85.7 4.3 90 9.8 90c3.4 0 6.5-1.7 8.3-4.6l18.6-27.6c1.1-1.6-1.1-3.6-2.5-2.3L16 72.3c-.4.3-.9.1-.9-.4V16.2c0-.6.7-.9 1.1-.4l55.2 69.9c2.4 2.7 5.7 4.3 9.4 4.3 5.5 0 9.8-4.3 9.8-9.8V9.8C90.5 4.3 86.2 0 80.7 0c-3.4 0-6.5 1.7-8.5 4.6z" fill="#fff"/>
</svg>
